FFmpeg version SVN-r25716, Copyright (c) 2000-2010 the FFmpeg developers  built on Nov 10 2010 12:23:18 with gcc 4.1.2 20080704 (Red Hat 4.1.2-48)  configuration: --enable-libmp3lame --enable-shared --disable-mmx --arch=x86_64  libavutil     50.33. 0 / 50.33. 0  libavcore      0.12. 1 /  0.12. 1  libavcodec    52.94. 4 / 52.94. 4  libavformat   52.84. 0 / 52.84. 0  libavdevice   52. 2. 2 / 52. 2. 2  libavfilter    1.59. 0 /  1.59. 0  libswscale     0.12. 0 /  0.12. 0Input #0, avi, from '/RAID10/data/converted_video_files/47372.avi':  Duration: 00:00:07.05, start: 0.000000, bitrate: 20987 kb/s    Stream #0.0: Video: msvideo1, rgb555le, 1024x1024, 20 tbr, 20 tbn, 20 tbc[buffer @ 0x1b622380] w:1024 h:1024 pixfmt:rgb555le[ffsink @ 0x1b621700] auto-inserting filter 'auto-inserted scaler 0' between the filter 'src' and the filter 'out'[scale @ 0x1b6219f0] w:1024 h:1024 fmt:rgb555le -> w:1024 h:1024 fmt:yuv420p flags:0x4Output #0, flv, to '/RAID10/data/converted_video_files/47372.flv':  Metadata:    encoder         : Lavf52.84.0    Stream #0.0: Video: flv, yuv420p, 1024x1024, q=2-31, 600 kb/s, 1k tbn, 24 tbcStream mapping:  Stream #0.0 -> #0.0Press [q] to stop encodingframe=    7 fps=  0 q=9.5 size=     523kB time=0.33 bitrate=12815.6kbits/s    frame=   16 fps= 14 q=31.0 size=     582kB time=0.79 bitrate=6021.1kbits/s    frame=   27 fps= 16 q=31.0 size=     620kB time=1.33 bitrate=3807.3kbits/s    frame=   36 fps= 16 q=31.0 size=     627kB time=1.79 bitrate=2868.6kbits/s    frame=   47 fps= 17 q=31.0 size=     663kB time=2.33 bitrate=2328.5kbits/s    frame=   58 fps= 18 q=31.0 size=     698kB time=2.88 bitrate=1989.0kbits/s    frame=   68 fps= 18 q=31.0 size=     734kB time=3.37 bitrate=1782.2kbits/s    frame=   78 fps= 18 q=31.0 size=     769kB time=3.88 bitrate=1626.7kbits/s    frame=   85 fps= 18 q=24.8 size=     802kB time=4.25 bitrate=1545.4kbits/s    frame=   93 fps= 17 q=31.0 size=     810kB time=4.62 bitrate=1434.2kbits/s    frame=  103 fps= 18 q=31.0 size=     845kB time=5.12 bitrate=1350.9kbits/s    frame=  111 fps= 17 q=31.0 size=     880kB time=5.54 bitrate=1301.1kbits/s    frame=  120 fps= 17 q=31.0 size=     892kB time=6.00 bitrate=1218.2kbits/s    frame=  131 fps= 18 q=31.0 size=     928kB time=6.54 bitrate=1161.9kbits/s    frame=  141 fps= 18 q=31.0 Lsize=     965kB time=7.04 bitrate=1122.7kbits/s    video:963kB audio:0kB global headers:0kB muxing overhead 0.250149%